{"accessors":[{"bufferView":0,"byteOffset":0,"componentType":5126,"count":54,"max":[0.10159999999999855,9.448800000000004,0.1008592216083623],"min":[-0.10159999999999855,0.0,-0.1008592216083623],"type":"VEC3"},{"bufferView":0,"byteOffset":648,"componentType":5126,"count":52,"max":[0.10159999999999855,9.448800000000004,0.1008592216083623],"min":[-0.10159999999999855,9.448800000000004,-0.1008592216083623],"type":"VEC3"},{"bufferView":0,"byteOffset":1272,"componentType":5126,"count":52,"max":[0.10159999999999855,0.0,0.1008592216083623],"min":[-0.10159999999999855,0.0,-0.1008592216083623],"type":"VEC3"},{"bufferView":0,"byteOffset":1896,"componentType":5126,"count":54,"max":[0.03492500000000291,9.448800000000004,0.03467035742787448],"min":[-0.03492500000000291,0.0,-0.03467035742787448],"type":"VEC3"},{"bufferView":0,"byteOffset":2544,"componentType":5126,"count":54,"max":[0.10159999999999855,9.448800000000004,0.1008592216083623],"min":[-0.10159999999999855,0.0,-0.1008592216083623],"type":"VEC3"},{"bufferView":0,"byteOffset":3192,"componentType":5126,"count":52,"max":[0.10159999999999855,9.448800000000004,0.1008592216083623],"min":[-0.10159999999999855,9.448800000000004,-0.1008592216083623],"type":"VEC3"},{"bufferView":0,"byteOffset":3816,"componentType":5126,"count":52,"max":[0.10159999999999855,0.0,0.1008592216083623],"min":[-0.10159999999999855,0.0,-0.1008592216083623],"type":"VEC3"},{"bufferView":0,"byteOffset":4440,"componentType":5126,"count":54,"max":[0.02857499999999709,9.448800000000004,0.02836665607735199],"min":[-0.02857499999999709,0.0,-0.02836665607735188],"type":"VEC3"},{"bufferView":1,"byteOffset":0,"componentType":5126,"count":54,"type":"VEC3"},{"bufferView":1,"byteOffset":648,"componentType":5126,"count":52,"type":"VEC3"},{"bufferView":1,"byteOffset":1272,"componentType":5126,"count":52,"type":"VEC3"},{"bufferView":1,"byteOffset":1896,"componentType":5126,"count":54,"type":"VEC3"},{"bufferView":1,"byteOffset":2544,"componentType":5126,"count":54,"type":"VEC3"},{"bufferView":1,"byteOffset":3192,"componentType":5126,"count":52,"type":"VEC3"},{"bufferView":1,"byteOffset":3816,"componentType":5126,"count":52,"type":"VEC3"},{"bufferView":1,"byteOffset":4440,"componentType":5126,"count":54,"type":"VEC3"},{"bufferView":2,"byteOffset":0,"componentType":5123,"count":156,"type":"SCALAR"},{"bufferView":2,"byteOffset":312,"componentType":5123,"count":156,"type":"SCALAR"},{"bufferView":2,"byteOffset":624,"componentType":5123,"count":156,"type":"SCALAR"},{"bufferView":2,"byteOffset":936,"componentType":5123,"count":156,"type":"SCALAR"},{"bufferView":2,"byteOffset":1248,"componentType":5123,"count":156,"type":"SCALAR"},{"bufferView":2,"byteOffset":1560,"componentType":5123,"count":156,"type":"SCALAR"},{"bufferView":2,"byteOffset":1872,"componentType":5123,"count":156,"type":"SCALAR"},{"bufferView":2,"byteOffset":2184,"componentType":5123,"count":156,"type":"SCALAR"}],"asset":{"generator":"Open CASCADE Technology 7.6 [dev.opencascade.org]","version":"2.0"},"bufferViews":[{"buffer":0,"byteLength":5088,"byteOffset":0,"byteStride":12,"target":34962},{"buffer":0,"byteLength":5088,"byteOffset":5088,"byteStride":12,"target":34962},{"buffer":0,"byteLength":2496,"byteOffset":10176,"target":34963}],"buffers":[{"byteLength":12672,"uri":"Combined tool(BHA)-Drill collar_002.bin"}],"materials":[{"name":"mat_0","pbrMetallicRoughness":{"baseColorFactor":[0.6038273572921753,0.6038273572921753,0.6038273572921753,1.0]},"doubleSided":true}],"meshes":[{"name":"Drill collar_002","primitives":[{"attributes":{"NORMAL":8,"POSITION":0},"indices":16,"material":0,"mode":4},{"attributes":{"NORMAL":9,"POSITION":1},"indices":17,"material":0,"mode":4},{"attributes":{"NORMAL":10,"POSITION":2},"indices":18,"material":0,"mode":4},{"attributes":{"NORMAL":11,"POSITION":3},"indices":19,"material":0,"mode":4},{"attributes":{"NORMAL":12,"POSITION":4},"indices":20,"material":0,"mode":4},{"attributes":{"NORMAL":13,"POSITION":5},"indices":21,"material":0,"mode":4},{"attributes":{"NORMAL":14,"POSITION":6},"indices":22,"material":0,"mode":4},{"attributes":{"NORMAL":15,"POSITION":7},"indices":23,"material":0,"mode":4}]}],"nodes":[{"mesh":0,"name":"Drill collar_002"}],"scene":0,"scenes":[{"nodes":[0]}]}